#!OML:ASF C:\Vicon Data\Big\jianyuan-13\jianyuan\Session 1\Capture.male.ASF
:FULLY-SPECIFIED
:DEGREES
112
root -7.993698 17.473852 -16.490022 5.082696 10.535160 0.806786
lowerback -11.637935 2.221444 0.043419 
upperback 2.801072 3.041333 -0.806109 
thorax 9.598400 1.494148 -0.287126 
lowerneck -0.203744 -3.187425 1.799677 
upperneck 15.113012 -4.217938 -1.228594 
head 5.009553 -2.022495 -0.920068 
rclavicle 0.000000 0.000000 
rhumerus -38.171876 -14.161788 -84.024154 
rradius 42.435364 
rwrist 19.426495 
rhand -19.072072 -19.471375 
rfingers 0.000000 
rthumb 7.235601 -49.327662 
lclavicle 0.000000 0.000000 
lhumerus -37.712621 28.843968 69.079057 
lradius 28.260372 
lwrist -51.449272 
lhand -18.459237 2.046654 
lfingers 0.000000 
lthumb 7.827085 31.881747 
rfemur -1.138022 6.005267 26.079141 
rtibia 24.992940 
rfoot -27.742029 -7.581523 
rtoes -26.379303 
lfemur -37.349496 -4.771234 -14.253574 
ltibia 23.942673 
lfoot -13.345309 3.542781 
ltoes -44.818460 
113
root -7.956058 17.452459 -16.387775 5.291992 10.492197 0.680848
lowerback -11.836737 2.314892 0.029012 
upperback 2.697019 3.164147 -0.765961 
thorax 9.598436 1.550339 -0.205916 
lowerneck -0.338892 -3.271131 1.812547 
upperneck 15.631237 -4.311954 -1.371764 
head 4.725804 -2.079089 -0.905067 
rclavicle 0.000000 0.000000 
rhumerus -38.259016 -14.193601 -84.005376 
rradius 42.256516 
rwrist 19.924620 
rhand -18.961797 -19.365118 
rfingers 0.000000 
rthumb 7.342042 -49.217732 
lclavicle 0.000000 0.000000 
lhumerus -37.662357 28.556483 69.298841 
lradius 28.282268 
lwrist -50.750525 
lhand -18.561290 2.089237 
lfingers 0.000000 
lthumb 7.728622 31.928001 
rfemur -1.006909 6.059191 26.161021 
rtibia 25.055749 
rfoot -28.065586 -7.518049 
rtoes -26.373652 
lfemur -36.834879 -4.904011 -14.188844 
ltibia 23.330059 
lfoot -13.134375 3.199114 
ltoes -44.335588 
114
root -7.919922 17.430231 -16.286718 5.732951 10.372183 0.624855
lowerback -12.196660 2.393998 0.101419 
upperback 2.527159 3.269143 -0.889607 
thorax 9.635111 1.607719 -0.346369 
lowerneck -0.503592 -3.283709 1.877247 
upperneck 15.858748 -4.336929 -1.364421 
head 4.765933 -2.086557 -0.912134 
rclavicle 0.000000 0.000000 
rhumerus -38.255262 -14.163460 -84.271635 
rradius 42.198986 
rwrist 19.986599 
rhand -18.857433 -19.439004 
rfingers 0.000000 
rthumb 7.442791 -49.288103 
lclavicle 0.000000 0.000000 
lhumerus -37.882003 29.261363 68.551045 
lradius 28.294428 
lwrist -50.327542 
lhand -17.697829 -0.108936 
lfingers 0.000000 
lthumb 8.561966 29.697464 
rfemur -1.159684 6.103344 26.128690 
rtibia 25.177317 
rfoot -28.320001 -7.475495 
rtoes -26.703623 
lfemur -36.576382 -4.909505 -14.203131 
ltibia 22.803984 
lfoot -12.893289 2.877616 
ltoes -44.522809 
115
root -7.879549 17.407597 -16.183819 5.992608 10.258698 0.488658
lowerback -12.362822 2.486378 -0.044242 
upperback 2.393344 3.400042 -0.738176 
thorax 9.567908 1.657015 -0.071923 
lowerneck -0.655923 -3.369475 1.753051 
upperneck 16.092356 -4.444898 -1.396283 
head 4.863646 -2.146315 -0.912357 
rclavicle 0.000000 0.000000 
rhumerus -38.316616 -13.930428 -84.116650 
rradius 42.090640 
rwrist 19.808628 
rhand -18.900309 -19.301124 
rfingers 0.000000 
rthumb 7.401397 -49.151691 
lclavicle 0.000000 0.000000 
lhumerus -38.130845 29.484856 68.652639 
lradius 28.300003 
lwrist -50.754131 
lhand -18.044570 0.042271 
lfingers 0.000000 
lthumb 8.227326 29.862049 
rfemur -1.056905 6.098416 26.185201 
rtibia 25.176975 
rfoot -28.477641 -7.437109 
rtoes -27.192216 
lfemur -36.151362 -4.841322 -14.193867 
ltibia 22.332178 
lfoot -12.661911 2.530526 
ltoes -44.275282 
116
root -7.836576 17.387689 -16.080274 6.293492 10.141613 0.614294
lowerback -12.541574 2.559903 -0.061782 
upperback 2.309654 3.521880 -0.963595 
thorax 9.595417 1.721303 -0.272094 
lowerneck -0.735871 -3.396128 1.815772 
upperneck 16.041060 -4.507468 -1.245618 
head 4.862896 -2.165147 -0.879771 
rclavicle 0.000000 0.000000 
rhumerus -38.227531 -14.100703 -84.371729 
rradius 41.860354 
rwrist 20.325159 
rhand -18.606386 -19.093260 
rfingers 0.000000 
rthumb 7.685059 -48.933615 
lclavicle 0.000000 0.000000 
lhumerus -38.360637 29.962053 68.021249 
lradius 28.028783 
lwrist -52.621095 
lhand -18.974876 -0.214092 
lfingers 0.000000 
lthumb 7.329411 29.638992 
rfemur -0.971664 5.969354 25.917134 
rtibia 25.216391 
rfoot -28.554746 -7.272894 
rtoes -27.772137 
lfemur -35.678772 -4.907600 -14.409166 
ltibia 21.812781 
lfoot -12.425740 2.358859 
ltoes -44.181563 
